<svg width="40" height="40" viewBox="0 0 40 40" fill="none" xmlns="http://www.w3.org/2000/svg">
<g clip-path="url(#clip0)">
<path d="M0.126578 3.66929L2.79426 8.33746C2.88424 8.4952 3.03485 8.60933 3.21098 8.6535L5.69979 9.2757L14.2359 17.8118L15.1791 16.8689L6.50937 8.19946C6.42405 8.11387 6.31706 8.05324 6.19991 8.02389L3.80849 7.4239L1.53723 3.44707L3.4845 1.49981L7.46297 3.77326L8.06323 6.16469C8.09231 6.2821 8.15321 6.38937 8.23853 6.47469L16.9082 15.1444L17.8511 14.2012L9.31504 5.66511L8.69284 3.17767C8.64867 3.00127 8.53454 2.85039 8.3768 2.76013L3.70836 0.0927211C3.44801 -0.0554224 3.12045 -0.011528 2.90811 0.199988L0.240703 2.86767C0.0261692 3.07864 -0.0204685 3.40675 0.126578 3.66929Z" fill="white"/>
<path d="M27.8528 13.1433L13.1813 27.815L12.2382 26.8718L26.9099 12.2004L27.8528 13.1433Z" fill="white"/>
<path d="M10.6134 28.3341C10.4927 28.1332 10.2759 28.0106 10.0416 28.0106H6.0404C5.80639 28.0106 5.58938 28.1332 5.46895 28.3341L3.46819 31.6684C3.34117 31.8796 3.34117 32.1438 3.46819 32.3553L5.46895 35.6897C5.58938 35.8902 5.80639 36.0131 6.0404 36.0131H10.0416C10.2759 36.0131 10.4927 35.8902 10.6134 35.6897L12.6138 32.3553C12.7409 32.1438 12.7409 31.8796 12.6138 31.6684L10.6134 28.3341ZM9.66442 34.6793H6.41789L4.81739 32.0119L6.41789 29.3442H9.66442L11.2649 32.0119L9.66442 34.6793Z" fill="white"/>
<path d="M32.0491 16.0067C36.4536 16.0215 40.0365 12.4628 40.0513 8.05823C40.0535 7.38774 39.9712 6.72 39.8063 6.07009C39.7174 5.71262 39.3556 5.49507 38.9981 5.58396C38.8807 5.61331 38.7737 5.67394 38.6881 5.75926L34.5368 9.90783L31.2431 8.8102L30.1446 5.51729L34.2959 1.36516C34.5563 1.10454 34.556 0.682329 34.2954 0.42198C34.2095 0.336112 34.1014 0.275209 33.9832 0.246129C29.7117 -0.835594 25.3725 1.75006 24.2908 6.02126C24.1264 6.66925 24.0444 7.33534 24.0466 8.00391C24.0482 8.529 24.1023 9.05244 24.2087 9.56655L9.60371 24.1713C9.08959 24.0651 8.56615 24.0111 8.04134 24.0092C3.62145 24.0092 0.0385742 27.5921 0.0385742 32.0119C0.0385742 36.4316 3.62145 40.0144 8.04134 40.0144C12.461 40.0144 16.0438 36.4316 16.0438 32.0119C16.0422 31.4869 15.9879 30.9634 15.8817 30.4493L19.3782 26.9528L20.9073 28.482C21.168 28.7424 21.5899 28.7424 21.8505 28.482L22.1838 28.1484C22.4763 27.8579 22.949 27.8579 23.2414 28.1484C23.5336 28.4398 23.5341 28.9127 23.2428 29.2049C23.2425 29.2052 23.242 29.2057 23.2414 29.2063L22.9081 29.5396C22.6477 29.7999 22.6477 30.2221 22.9081 30.4825L30.8634 38.4378C32.9558 40.5494 36.3636 40.5648 38.4752 38.4724C40.5866 36.38 40.6019 32.9719 38.5095 30.8605C38.4983 30.849 38.4868 30.8375 38.4752 30.826L30.5199 22.8709C30.2596 22.6106 29.8374 22.6106 29.577 22.8709L29.2437 23.2043C28.951 23.4951 28.4786 23.4951 28.1858 23.2043C27.8939 22.9129 27.8931 22.4399 28.1845 22.1481C28.185 22.1475 28.1856 22.1472 28.1858 22.1467L28.5194 21.8131C28.7798 21.5527 28.7798 21.1305 28.5194 20.8702L26.9903 19.341L30.4867 15.8445C31.0008 15.9507 31.5243 16.005 32.0491 16.0067ZM34.6693 38.6809C34.1848 38.68 33.7045 38.5925 33.251 38.4222L38.4593 33.2136C39.2453 35.3043 38.1877 37.6362 36.097 38.4222C35.6408 38.5936 35.1571 38.6814 34.6693 38.6809ZM27.1143 21.3484C26.3757 22.2293 26.4915 23.5422 27.3724 24.2805C28.1466 24.9293 29.275 24.9288 30.0483 24.2786L37.5323 31.7692C37.6135 31.8506 37.6895 31.9365 37.763 32.0237L32.0612 37.7256C31.9737 37.6524 31.8878 37.5764 31.8063 37.4949L24.3166 30.0046C25.0551 29.1237 24.9393 27.8107 24.0584 27.0725C23.2842 26.4234 22.1556 26.4242 21.3822 27.0741L20.3153 26.0072L26.0471 20.2839L27.1143 21.3484ZM29.8072 14.641L14.6787 29.7665C14.5127 29.9322 14.4461 30.1728 14.5026 30.4002C15.4175 33.9932 13.2464 37.6477 9.65309 38.5624C6.06006 39.4773 2.40558 37.3062 1.49065 33.7128C0.576006 30.1198 2.74713 26.4653 6.34043 25.5504C7.42737 25.2739 8.56615 25.2739 9.65309 25.5504C9.88052 25.6061 10.1206 25.5394 10.2868 25.3746L25.4117 10.2488C25.5774 10.0831 25.6441 9.84254 25.587 9.61538C24.6784 6.06433 26.8205 2.44908 30.3715 1.54019C31.0425 1.36873 31.7366 1.30289 32.428 1.34596L28.9101 4.86519C28.7315 5.04351 28.669 5.3077 28.7488 5.5472L30.0824 9.54872C30.149 9.74762 30.3054 9.90399 30.5046 9.97011L34.5061 11.3039C34.7453 11.3838 35.0095 11.3215 35.1881 11.1432L38.706 7.62532C38.7139 7.75262 38.718 7.87854 38.718 8.00391C38.7367 11.6683 35.7815 14.6539 32.1171 14.6728C31.5506 14.6756 30.986 14.6059 30.4373 14.4654C30.2099 14.4087 29.9693 14.475 29.8036 14.6407H29.8072V14.641Z" fill="white"/>
<path d="M34.5219 33.5408L33.5787 34.484L26.91 27.8153L27.8529 26.8721L34.5219 33.5408Z" fill="white"/>
</g>
<defs>
<clipPath id="clip0">
<rect width="40" height="40" fill="white"/>
</clipPath>
</defs>
</svg>
