<svg width="22" height="22" viewBox="0 0 22 22" fill="none" xmlns="http://www.w3.org/2000/svg">
<g clip-path="url(#clip0)">
<path d="M12.4609 21.957H8.93784C8.34937 21.957 7.87067 21.4783 7.87067 20.8899V12.9433H5.81522C5.22675 12.9433 4.74805 12.4645 4.74805 11.8762V8.47106C4.74805 7.88258 5.22675 7.40389 5.81522 7.40389H7.87067V5.69873C7.87067 4.00801 8.40157 2.56957 9.40579 1.53915C10.4146 0.504044 11.8243 -0.0429688 13.4826 -0.0429688L16.1695 -0.0386048C16.757 -0.0375977 17.2348 0.441101 17.2348 1.02856V4.19012C17.2348 4.7786 16.7563 5.25729 16.168 5.25729L14.3589 5.25797C13.8072 5.25797 13.6667 5.36858 13.6367 5.40248C13.5872 5.45871 13.5283 5.61766 13.5283 6.05658V7.40372H16.032C16.2205 7.40372 16.4032 7.45021 16.5601 7.53783C16.8986 7.72699 17.1091 8.08467 17.1091 8.47122L17.1078 11.8763C17.1078 12.4645 16.6291 12.9432 16.0406 12.9432H13.5283V20.8899C13.5283 21.4783 13.0494 21.957 12.4609 21.957ZM9.1604 20.6673H12.2384V12.3659C12.2384 11.973 12.5581 11.6534 12.9509 11.6534H15.818L15.8192 8.69362H12.9507C12.558 8.69362 12.2384 8.37404 12.2384 7.98111V6.05658C12.2384 5.5527 12.2896 4.97968 12.6699 4.54898C13.1295 4.02832 13.8537 3.96823 14.3586 3.96823L15.9451 3.96756V1.25079L13.4816 1.24677C10.8165 1.24677 9.1604 2.95276 9.1604 5.69873V7.98111C9.1604 8.37387 8.84082 8.69362 8.44806 8.69362H6.03778V11.6534H8.44806C8.84082 11.6534 9.1604 11.973 9.1604 12.3659V20.6673ZM16.167 1.25113H16.1672H16.167Z" fill="white"/>
</g>
<defs>
<clipPath id="clip0">
<rect width="21.957" height="22" fill="white"/>
</clipPath>
</defs>
</svg>
