<svg width="49" height="40" viewBox="0 0 49 40" fill="none" xmlns="http://www.w3.org/2000/svg">
<g clip-path="url(#clip0)">
<path d="M10.69 29.7453C10.288 29.4121 9.68509 29.4597 9.34056 29.8596L6.94798 32.7065L6.08666 31.9734C5.6847 31.6306 5.08177 31.6877 4.73724 32.0876C4.39271 32.4875 4.45013 33.0874 4.85209 33.4302L6.45033 34.7822C6.62259 34.925 6.84271 35.0107 7.0724 35.0107C7.10111 35.0107 7.12982 35.0107 7.15853 35.0107C7.41693 34.9917 7.64662 34.8679 7.80931 34.6775L10.824 31.0974C11.1494 30.688 11.1015 30.0786 10.69 29.7453Z" fill="white"/>
<path d="M46.9711 15.0631H45.593C44.4445 15.006 43.5162 14.0348 42.4443 12.9017C41.7266 12.1495 40.9609 11.3402 40.0326 10.7403V2.59938C40.0326 1.16163 38.8555 0 37.4199 0H6.21113C4.76602 0 3.59844 1.17115 3.59844 2.59938V9.20733C3.59844 9.73102 4.0291 10.1595 4.55547 10.1595C5.08184 10.1595 5.5125 9.73102 5.5125 9.20733V2.59938C5.5125 2.21852 5.82832 1.90431 6.21113 1.90431H16.8055V10.3309C16.8055 10.6736 16.9969 10.9974 17.3031 11.1592C17.4467 11.2354 17.6094 11.283 17.7625 11.283C17.9348 11.283 18.1166 11.2354 18.2697 11.1402L21.8203 8.92169L25.3709 11.1307C25.6676 11.3116 26.0408 11.3211 26.3375 11.1592C26.6342 10.9974 26.8352 10.6736 26.8352 10.3309V1.90431H37.4295C37.8123 1.90431 38.1281 2.21852 38.1281 2.59938V9.93097C37.8123 9.86432 37.4869 9.82623 37.1424 9.81671C37.1328 9.81671 37.1328 9.81671 37.1232 9.81671H34.702H32.8166H31.7352C31.7256 9.81671 31.7256 9.81671 31.716 9.81671C30.558 9.83575 29.9742 10.3594 29.6775 10.7879C29.2182 11.4639 29.1799 12.3685 29.5627 13.3492C29.6488 13.5777 29.7541 13.7967 29.8785 13.9967H22.6242C21.0643 13.9967 19.801 15.263 19.801 16.8055C19.801 17.1293 19.8584 17.4339 19.9541 17.7196H19.6957C18.1357 17.7196 16.8725 18.986 16.8725 20.5284C16.8725 22.0709 18.1453 23.3373 19.6957 23.3373H19.9445C19.8488 23.6229 19.7914 23.9276 19.7914 24.2418C19.7914 25.7463 20.9781 26.9745 22.4711 27.0507C22.3754 27.3363 22.318 27.641 22.318 27.9648C22.318 29.5168 23.5908 30.7736 25.1412 30.7736H36.9988C37.4104 30.7736 37.7836 30.726 38.1186 30.6403V33.6206C38.1186 34.0014 37.8027 34.3156 37.4199 34.3156H15.2551C15.4465 33.6491 15.5422 32.9541 15.5422 32.2304C15.5422 27.9648 12.0586 24.4989 7.77109 24.4989C6.98633 24.4989 6.2207 24.6132 5.5125 24.8322V8.31231C5.5125 7.78862 5.08184 7.36015 4.55547 7.36015C4.0291 7.36015 3.59844 7.78862 3.59844 8.31231V25.7463C1.43555 27.1174 0 29.5263 0 32.2685C0 36.5342 3.48359 40.0095 7.77109 40.0095C10.5943 40.0095 13.0635 38.5051 14.432 36.2676H37.4295C38.8746 36.2676 40.0422 35.0964 40.0422 33.6682V29.7453C40.2527 29.593 40.4537 29.4406 40.6547 29.2883C41.4969 28.6408 42.2338 28.079 43.3918 28.079H46.9807C48.1004 28.079 49.0096 27.1745 49.0096 26.07V17.0912C49 15.9676 48.0908 15.0631 46.9711 15.0631ZM24.9211 8.60747L22.3275 6.98881C22.0213 6.79838 21.6193 6.79838 21.3131 6.98881L18.7195 8.60747V1.90431H24.9307V8.60747H24.9211ZM7.77109 38.0957C4.53633 38.0957 1.91406 35.4773 1.91406 32.259C1.91406 29.0407 4.5459 26.4318 7.77109 26.4318C10.9963 26.4318 13.6281 29.0502 13.6281 32.259C13.6377 35.4773 11.0059 38.0957 7.77109 38.0957ZM47.0859 26.0605C47.0859 26.1176 47.0381 26.1652 46.9711 26.1652H43.3822C41.5639 26.1652 40.4537 27.0126 39.4775 27.7648C38.6545 28.3932 38.0037 28.8979 36.9988 28.8979H25.1508C24.6436 28.8979 24.2416 28.4885 24.2416 27.9933C24.2416 27.4982 24.6531 27.0888 25.1508 27.0888H28.3281C28.8545 27.0888 29.2852 26.6603 29.2852 26.1366C29.2852 25.6129 28.8545 25.1845 28.3281 25.1845H22.6242C22.117 25.1845 21.715 24.7751 21.715 24.2704C21.715 23.7658 22.1266 23.3659 22.6242 23.3659H28.3281C28.8545 23.3659 29.2852 22.9374 29.2852 22.4137C29.2852 21.89 28.8545 21.4616 28.3281 21.4616H19.6957C19.1885 21.4616 18.7865 21.0521 18.7865 20.557C18.7865 20.0619 19.198 19.6525 19.6957 19.6525H28.3281C28.8545 19.6525 29.2852 19.224 29.2852 18.7003C29.2852 18.1766 28.8545 17.7482 28.3281 17.7482H22.6242C22.117 17.7482 21.715 17.3387 21.715 16.8341C21.715 16.3294 22.1266 15.9295 22.6242 15.9295H33.3047H35.3814H36.7691C37.2955 15.9295 37.7262 15.5011 37.7262 14.9774C37.7262 14.4537 37.2955 14.0252 36.7691 14.0252H35.3814H33.3047C32.4338 14.0252 31.6586 13.5015 31.3523 12.6922C31.1705 12.2257 31.2184 11.9495 31.2758 11.8734C31.3236 11.7972 31.515 11.7496 31.7543 11.7401H34.7115H37.1232C38.7406 11.7686 39.8699 12.9588 41.0662 14.2252C42.3199 15.5392 43.6119 16.9103 45.5547 16.9769C45.5643 16.9769 45.5834 16.9769 45.593 16.9769H46.9902C47.0477 16.9769 47.1051 17.0245 47.1051 17.0912L47.0859 26.0605Z" fill="white"/>
</g>
<defs>
<clipPath id="clip0">
<rect width="49" height="40" fill="white"/>
</clipPath>
</defs>
</svg>
