<svg width="38" height="40" viewBox="0 0 38 40" fill="none" xmlns="http://www.w3.org/2000/svg">
<g clip-path="url(#clip0)">
<path d="M27.5162 39.9219C27.5148 39.9219 24.4595 39.9179 23.4744 39.9179C18.3918 39.9179 14.7497 39.454 12.0131 38.458C11.4301 38.2431 10.9206 38.0045 10.4712 37.7942C9.67556 37.4219 9.04753 37.128 8.39597 37.128H5.74124C4.93747 37.128 3.7735 37.0377 2.95201 36.2564C2.07213 35.4199 1.97046 34.2069 1.97046 33.3673L1.97104 20.6165C1.97104 19.4458 2.31323 18.4573 2.96101 17.7582C3.42637 17.2553 4.28678 16.6559 5.74124 16.6559C5.8124 16.6559 5.89113 16.6568 5.97653 16.6577C6.80615 16.6675 8.17114 16.6827 9.05421 15.8774C9.10795 15.769 9.16024 15.6674 9.20729 15.5762C9.23896 15.51 9.26888 15.4556 9.29124 15.4144C9.29909 15.4004 9.30722 15.3864 9.31477 15.3708C9.37578 15.2185 9.44811 15.0836 9.53351 14.964C10.0041 14.1367 10.5336 13.3652 10.9941 12.8375C12.011 11.6687 12.9537 11.0641 13.7853 10.5304C14.7616 9.90387 15.4672 9.4513 16.0813 8.19153L16.1243 8.10394C17.0437 6.2207 17.4242 5.44129 17.6543 4.50623C17.7321 4.18915 17.7664 3.8559 17.756 3.51593C17.6726 2.19635 18.2934 0.170898 20.3564 -0.0708008L20.418 -0.078125H20.4798C21.7356 -0.078125 22.7869 0.234375 23.6049 0.85022C24.8223 1.76697 25.4396 3.25653 25.4396 5.2771C25.4396 8.88123 24.6006 11.7648 23.8768 13.5819L32.4922 14.7183C34.5561 14.8434 36.1503 16.8073 36.0556 19.1226C36.0053 20.3503 35.5208 21.4572 34.7833 22.2302C35.4804 22.9492 35.8511 23.9215 35.8104 25.0403C35.7971 26.1615 35.4697 27.0575 34.8373 27.7036C34.593 27.9532 34.3197 28.1467 34.0306 28.2962C34.5198 28.9755 34.7839 29.8026 34.7839 30.6781C34.7839 31.8723 34.3536 32.962 33.5722 33.7463C32.9355 34.3854 32.1027 34.7858 31.2199 34.8904C31.3573 35.2899 31.4209 35.7245 31.4038 36.182C31.402 36.3641 31.3855 36.7004 31.3605 36.8601C31.2466 37.5815 30.9701 38.1531 30.5146 38.6081C29.6551 39.4675 28.618 39.9219 27.5162 39.9219ZM5.74124 18.9996C4.66209 18.9996 4.20196 19.483 4.20196 20.6168L4.20138 33.3676C4.20138 33.7854 4.24437 34.3243 4.44887 34.5191C4.55315 34.6179 4.85991 34.7842 5.74124 34.7842H8.39597C9.52189 34.7842 10.4238 35.2066 11.379 35.6534C11.8095 35.8551 12.2545 36.0632 12.7474 36.2451C15.2041 37.139 18.714 37.5745 23.4744 37.5745C24.46 37.5745 27.5177 37.5784 27.5177 37.5784C28.042 37.5784 28.5335 37.3535 28.9774 36.9101C29.0337 36.8536 29.1101 36.7774 29.1569 36.4938C29.1633 36.4243 29.1717 36.2476 29.1732 36.1752L29.172 36.1499L29.1743 36.0956C29.1938 35.6394 28.9797 35.304 28.5382 35.098C28.0164 34.8547 27.7027 34.2905 27.7573 33.6932C27.8262 32.9385 28.4681 32.3764 29.1874 32.4399L30.6872 32.5732C31.1926 32.5922 31.6818 32.4027 32.0312 32.052C32.3725 31.7093 32.5532 31.2341 32.5532 30.6781C32.5532 29.9255 32.0306 29.0732 30.8835 28.9795C30.5573 28.9533 30.2509 28.7857 30.0432 28.5199C29.8355 28.255 29.7387 27.9074 29.7771 27.5665C29.8506 26.9162 30.3778 26.434 30.9994 26.4484C31.6844 26.4618 32.8306 26.485 33.2821 26.0236C33.3544 25.95 33.5737 25.7257 33.5798 25L33.5807 24.9603C33.6228 23.9255 32.8385 23.5217 32.173 23.3646H32.1724C31.6199 23.234 31.2399 22.6886 31.2882 22.0963C31.3367 21.5039 31.7994 21.0349 32.365 21.0053C33.1275 20.9647 33.7837 20.0748 33.827 19.0219C33.8697 17.9785 33.2048 17.0972 32.345 17.0575L32.2549 17.0493L23.4814 15.892C22.8086 15.8032 22.2291 15.3983 21.8916 14.7809C21.5537 14.1635 21.5125 13.4335 21.7783 12.7783C22.3125 11.4615 23.2086 8.73627 23.2086 5.27741C23.2086 2.65686 21.803 2.27905 20.5495 2.26624C20.3038 2.30713 20.1789 2.42279 20.0839 2.6886C19.988 2.95685 19.9779 3.26721 19.9825 3.37311L19.9848 3.40118L19.9843 3.41126C20.0046 3.98438 19.9474 4.55017 19.8137 5.09277C19.5218 6.2796 19.0791 7.18659 18.1092 9.17359L18.0665 9.26087C17.1663 11.1075 16.0383 11.8311 14.9478 12.5308C14.2086 13.0054 13.4437 13.4958 12.6397 14.4202C12.2705 14.8431 11.8121 15.5191 11.4129 16.2293L11.3429 16.3464C11.2985 16.4487 11.2558 16.5265 11.2262 16.5808C11.218 16.5961 11.209 16.611 11.2012 16.6275L11.1774 16.6766C11.1097 16.8069 11.0307 16.9614 10.9557 17.1185L10.8747 17.2876L10.7472 17.4216C9.20817 19.0384 7.00891 19.0134 5.95213 19.0015C5.87573 19.0002 5.80514 18.9996 5.74124 18.9996ZM29.1604 36.4725C29.1598 36.4758 29.1592 36.4795 29.1586 36.4832C29.1589 36.4813 29.1592 36.4792 29.1598 36.4774L29.1604 36.4725ZM29.1612 36.4679C29.161 36.4694 29.1607 36.471 29.1604 36.4725L29.1612 36.4679ZM29.1743 36.1957C29.1743 36.1987 29.1746 36.2015 29.1746 36.2039L29.1743 36.1957ZM31.0555 26.6428H31.0572C31.0567 26.6428 31.0561 26.6428 31.0555 26.6428ZM32.4792 23.3456C32.4786 23.3456 32.478 23.3456 32.4771 23.3456H32.4792Z" fill="white"/>
</g>
<defs>
<clipPath id="clip0">
<rect width="38" height="40" fill="white"/>
</clipPath>
</defs>
</svg>
