<svg width="25" height="25" viewBox="0 0 25 25" fill="none" xmlns="http://www.w3.org/2000/svg">
<g clip-path="url(#clip0)">
<path d="M21.449 3.55091C19.1591 1.26095 16.1151 0 12.8765 0C12.8763 0 12.8755 0 12.8753 0C11.2735 0.000190735 9.71254 0.310326 8.23606 0.922012C6.75939 1.5337 5.43646 2.41814 4.30368 3.55091C2.01391 5.84068 0.752963 8.88519 0.752963 12.1235C0.752963 14.0547 1.21893 15.9739 2.10184 17.6838L0.0640287 23.5054C-0.0795946 23.9161 0.0220671 24.3624 0.329913 24.67C0.545253 24.8856 0.828685 25 1.12013 25C1.24506 25 1.37133 24.979 1.49454 24.9359L7.31615 22.8983C9.02609 23.7812 10.9453 24.2472 12.8765 24.2472C16.1147 24.2472 19.1591 22.986 21.449 20.6963C23.7388 18.4065 24.9999 15.362 24.9999 12.1237C24.9999 8.88519 23.739 5.84068 21.449 3.55091ZM20.4122 19.6594C18.3994 21.6724 15.723 22.7808 12.8765 22.7808C11.135 22.7808 9.40508 22.3501 7.87348 21.5349C7.59577 21.3873 7.26751 21.3619 6.97283 21.4651L1.68375 23.3162L3.53502 18.0271C3.63821 17.732 3.61265 17.4038 3.46502 17.1263C2.65001 15.5951 2.21914 13.8651 2.21914 12.1235C2.21914 9.27696 3.32769 6.60057 5.34052 4.58775C7.35315 2.57511 10.0292 1.46656 12.8755 1.46618H12.8765C15.7232 1.46618 18.3994 2.57473 20.4122 4.58775C22.4252 6.60057 23.5338 9.27677 23.5338 12.1235C23.5338 14.9702 22.4252 17.6466 20.4122 19.6594Z" fill="white"/>
<path d="M17.3819 13.2065C16.8242 12.6488 15.9167 12.6488 15.359 13.2065L14.749 13.8164C13.2344 12.9911 12.0087 11.7655 11.1832 10.2508L11.7932 9.64088C12.3511 9.08317 12.3511 8.17565 11.7932 7.61794L10.1494 5.97419C9.59171 5.41648 8.68419 5.41648 8.12649 5.97419L6.81156 7.28912C6.05835 8.04233 6.02077 9.33723 6.7057 10.9354C7.30041 12.323 8.38875 13.8481 9.77024 15.2296C11.1517 16.6111 12.6768 17.6994 14.0644 18.2941C14.8238 18.6195 15.5144 18.7818 16.1112 18.7818C16.7706 18.7818 17.3153 18.5837 17.7107 18.1883L19.0256 16.8732V16.8734C19.2959 16.6031 19.4447 16.2439 19.4447 15.8619C19.4447 15.4797 19.2959 15.1205 19.0256 14.8504L17.3819 13.2065ZM16.6739 17.1514C16.4589 17.3664 15.7978 17.4417 14.6422 16.9466C13.4219 16.4236 12.0598 15.4455 10.8071 14.1928C9.55433 12.94 8.57643 11.5782 8.05343 10.3578C7.5581 9.20219 7.63344 8.54091 7.84839 8.32595L9.13814 7.0362L10.7312 8.62941L9.96765 9.39311C9.62242 9.73834 9.53907 10.2619 9.76051 10.696C10.7643 12.6644 12.3354 14.2355 14.3038 15.2393C14.7381 15.4608 15.2617 15.3776 15.6069 15.0322L16.3704 14.2687L17.9636 15.8619L16.6739 17.1514Z" fill="white"/>
</g>
<defs>
<clipPath id="clip0">
<rect width="25" height="25" fill="white"/>
</clipPath>
</defs>
</svg>
